<svg width="100" height="41" viewBox="0 0 100 41" fill="none" xmlns="http://www.w3.org/2000/svg">
<path d="M95.7955 8.02686C95.7955 7.0402 96.4201 6.54688 97.6691 6.54688C98.9182 6.54688 99.5428 7.0402 99.5428 8.02686V29.3016C99.5428 30.0211 99.1511 30.5452 98.3678 30.8741H98.3995C98.0608 31.018 97.7009 31.131 97.3198 31.2133C96.9388 31.2955 96.5683 31.3366 96.2084 31.3366C95.9331 31.3366 95.6473 31.3058 95.3509 31.2441C95.0546 31.203 94.7687 31.131 94.4935 31.0283C94.2395 30.9049 93.996 30.7508 93.7631 30.5658C93.5514 30.3602 93.3821 30.1136 93.255 29.8258L86.3639 13.1451L85.5065 13.2376V29.8874C85.5065 30.8741 84.8714 31.3674 83.6012 31.3674C82.3521 31.3674 81.7275 30.8741 81.7275 29.8874V8.64352C81.7275 7.80075 82.1086 7.23548 82.8708 6.9477C83.5694 6.68048 84.3104 6.54688 85.0937 6.54688C85.6441 6.54688 86.1946 6.65993 86.745 6.88604C87.3166 7.09159 87.7506 7.49242 88.047 8.08852L94.9064 24.8L95.7955 24.7075V8.02686Z" fill="black"/>
<path d="M68.3093 9.72267L61.3547 30.4424V30.4116C61.2277 30.7199 61.0477 30.9769 60.8148 31.1824C60.6031 31.3674 60.3385 31.4599 60.0209 31.4599C59.8516 31.4599 59.6822 31.4394 59.5128 31.3983C59.3646 31.3777 59.2059 31.3469 59.0365 31.3058H59.0683C57.8615 30.9358 57.4169 30.278 57.7345 29.3325L64.9749 7.96519C65.0808 7.63631 65.2607 7.35881 65.5148 7.1327C65.79 6.90659 66.1075 6.77298 66.4674 6.73187C66.8273 6.67021 67.1767 6.6291 67.5154 6.60854C67.8541 6.56743 68.1188 6.54688 68.3093 6.54688C68.4998 6.54688 68.7645 6.56743 69.1032 6.60854C69.4419 6.6291 69.7913 6.65993 70.1512 6.70104C70.4476 6.74215 70.7334 6.89631 71.0086 7.16353C71.305 7.43075 71.5273 7.69797 71.6755 7.96519C72.861 11.5007 74.0572 15.0671 75.2639 18.6642C76.4918 22.2409 77.6986 25.7969 78.8841 29.3325C79.1805 30.278 78.7359 30.9358 77.5504 31.3058C77.381 31.3469 77.2222 31.3777 77.074 31.3983C76.947 31.4394 76.7988 31.4599 76.6294 31.4599C76.333 31.4599 76.0578 31.3674 75.8038 31.1824C75.5709 30.9769 75.4015 30.7199 75.2957 30.4116V30.4424L68.3093 9.72267ZM70.691 23.7825C70.691 24.4403 70.4476 25.0056 69.9606 25.4783C69.4949 25.9305 68.9233 26.1567 68.2458 26.1567C67.5683 26.1567 66.9967 25.9305 66.531 25.4783C66.0652 25.0056 65.8323 24.4403 65.8323 23.7825C65.8323 23.1247 66.0652 22.5698 66.531 22.1175C66.9967 21.6448 67.5683 21.4084 68.2458 21.4084C68.9233 21.4084 69.4949 21.6448 69.9606 22.1175C70.4476 22.5698 70.691 23.1247 70.691 23.7825Z" fill="black"/>
<path d="M50.419 29.9512C50.419 30.9379 49.7839 31.4312 48.5137 31.4312C47.2646 31.4312 46.64 30.9379 46.64 29.9512V9.81726H41.0827C40.3206 9.81726 39.9183 9.2931 39.876 8.24478C39.876 7.21701 40.2782 6.70312 41.0827 6.70312H55.9764C56.7809 6.70312 57.1619 7.21701 57.1196 8.24478C57.1196 9.2931 56.7385 9.81726 55.9764 9.81726H50.419V29.9512Z" fill="black"/>
<path d="M32.1412 0.539062C32.0699 0.588502 27.699 2.65113 17.9956 8.7263L20.287 41.0006L23.4033 10.1798L32.1412 0.539062Z" fill="url(#paint0_linear_34_401)"/>
<path d="M31.4074 8.40039C31.3666 8.43005 29.9409 8.99367 25.022 10.8921L24.3804 23.4103L26.794 11.9007L31.4074 8.40039Z" fill="url(#paint1_linear_34_401)"/>
<path d="M-0.000121117 0.539062C0.0711679 0.588502 4.44216 2.65113 14.1455 8.7263L11.8541 41.0006L8.73778 10.1798L-0.000121117 0.539062Z" fill="url(#paint2_linear_34_401)"/>
<path d="M0.733755 8.40039C0.774491 8.43005 2.20026 8.99367 7.11915 10.8921L7.76074 23.4103L5.34712 11.9007L0.733755 8.40039Z" fill="url(#paint3_linear_34_401)"/>
<defs>
<linearGradient id="paint0_linear_34_401" x1="25.0684" y1="0.539062" x2="25.0684" y2="41.0006" gradientUnits="userSpaceOnUse">
<stop stop-color="#CE18A8"/>
<stop offset="1" stop-color="#C4635C"/>
</linearGradient>
<linearGradient id="paint1_linear_34_401" x1="27.8939" y1="8.40039" x2="27.8939" y2="23.4103" gradientUnits="userSpaceOnUse">
<stop stop-color="#CC2699"/>
<stop offset="1" stop-color="#C8427D"/>
</linearGradient>
<linearGradient id="paint2_linear_34_401" x1="7.07269" y1="0.539062" x2="7.07269" y2="41.0006" gradientUnits="userSpaceOnUse">
<stop stop-color="#CE18A8"/>
<stop offset="1" stop-color="#C4635C"/>
</linearGradient>
<linearGradient id="paint3_linear_34_401" x1="4.24725" y1="8.40039" x2="4.24725" y2="23.4103" gradientUnits="userSpaceOnUse">
<stop stop-color="#CC2699"/>
<stop offset="1" stop-color="#C8427D"/>
</linearGradient>
</defs>
</svg>
