<svg width="98" height="40" viewBox="0 0 98 40" fill="none" xmlns="http://www.w3.org/2000/svg">
<path d="M30.4953 0.461548C30.4276 0.50986 26.2805 2.52543 17.0742 8.46199L19.2483 40L22.2049 9.88236L30.4953 0.461548Z" fill="url(#paint0_linear_48_236)"/>
<path d="M29.7998 8.14288C29.7612 8.17187 28.4085 8.72263 23.7415 10.5778L23.1328 22.8103L25.4228 11.5633L29.7998 8.14288Z" fill="url(#paint1_linear_48_236)"/>
<path d="M0.000842094 0.461548C0.0684786 0.50986 4.21557 2.52543 13.4219 8.46199L11.2478 40L8.29116 9.88236L0.000842094 0.461548Z" fill="url(#paint2_linear_48_236)"/>
<path d="M0.696245 8.14288C0.734894 8.17187 2.08763 8.72263 6.75455 10.5778L7.36328 22.8103L5.0733 11.5633L0.696245 8.14288Z" fill="url(#paint3_linear_48_236)"/>
<path d="M93.9856 9.47156C93.9856 8.49052 94.5885 8 95.7944 8C97.0002 8 97.6032 8.49052 97.6032 9.47156V30.6253C97.6032 31.3406 97.2251 31.8618 96.4689 32.1888H96.4995C96.1725 32.3319 95.825 32.4443 95.4572 32.526C95.0893 32.6078 94.7316 32.6487 94.3841 32.6487C94.1184 32.6487 93.8425 32.618 93.5564 32.5567C93.2702 32.5158 92.9943 32.4443 92.7286 32.3421C92.4834 32.2195 92.2483 32.0662 92.0235 31.8822C91.8191 31.6778 91.6556 31.4326 91.533 31.1464L84.8803 14.5607L84.0525 14.6527V31.2078C84.0525 32.1888 83.4394 32.6793 82.2131 32.6793C81.0072 32.6793 80.4043 32.1888 80.4043 31.2078V10.0847C80.4043 9.24674 80.7722 8.68469 81.508 8.39855C82.1824 8.13285 82.8978 8 83.654 8C84.1854 8 84.7168 8.11241 85.2482 8.33723C85.8 8.54162 86.219 8.94016 86.5051 9.53288L93.1272 26.1493L93.9856 26.0573V9.47156Z" fill="white"/>
<path d="M67.4493 11.1577L60.7353 31.7596V31.7289C60.6127 32.0355 60.4389 32.291 60.2141 32.4954C60.0097 32.6793 59.7543 32.7713 59.4477 32.7713C59.2842 32.7713 59.1207 32.7509 58.9572 32.71C58.8141 32.6895 58.6608 32.6589 58.4973 32.618H58.528C57.363 32.2501 56.9338 31.5961 57.2403 30.6559L64.2303 9.41025C64.3324 9.08323 64.5062 8.80731 64.7514 8.58249C65.0171 8.35767 65.3237 8.22482 65.6712 8.18394C66.0186 8.12263 66.3558 8.08175 66.6829 8.06131C67.0099 8.02044 67.2654 8 67.4493 8C67.6332 8 67.8887 8.02044 68.2157 8.06131C68.5427 8.08175 68.88 8.11241 69.2274 8.15329C69.5136 8.19416 69.7895 8.34745 70.0552 8.61315C70.3413 8.87885 70.5559 9.14455 70.699 9.41025C71.8435 12.9256 72.9983 16.4717 74.1633 20.0484C75.3487 23.6047 76.5137 27.1405 77.6583 30.6559C77.9444 31.5961 77.5152 32.2501 76.3706 32.618C76.2071 32.6589 76.0538 32.6895 75.9108 32.71C75.7881 32.7509 75.6451 32.7713 75.4816 32.7713C75.1954 32.7713 74.9297 32.6793 74.6845 32.4954C74.4597 32.291 74.2961 32.0355 74.194 31.7289V31.7596L67.4493 11.1577ZM69.7486 25.1376C69.7486 25.7916 69.5136 26.3536 69.0435 26.8237C68.5938 27.2734 68.042 27.4982 67.388 27.4982C66.734 27.4982 66.1821 27.2734 65.7325 26.8237C65.2828 26.3536 65.058 25.7916 65.058 25.1376C65.058 24.4835 65.2828 23.9317 65.7325 23.4821C66.1821 23.012 66.734 22.7769 67.388 22.7769C68.042 22.7769 68.5938 23.012 69.0435 23.4821C69.5136 23.9317 69.7486 24.4835 69.7486 25.1376Z" fill="white"/>
<path d="M50.1783 31.2712C50.1783 32.2523 49.5652 32.7428 48.3389 32.7428C47.133 32.7428 46.5301 32.2523 46.5301 31.2712V11.2519H41.165C40.4292 11.2519 40.0409 10.7307 40 9.68833C40 8.66642 40.3883 8.15546 41.165 8.15546H55.5434C56.32 8.15546 56.6879 8.66642 56.647 9.68833C56.647 10.7307 56.2792 11.2519 55.5434 11.2519H50.1783V31.2712Z" fill="white"/>
<defs>
<linearGradient id="paint0_linear_48_236" x1="23.7847" y1="0.461548" x2="23.7847" y2="40" gradientUnits="userSpaceOnUse">
<stop stop-color="#CE18A8"/>
<stop offset="1" stop-color="#C4635C"/>
</linearGradient>
<linearGradient id="paint1_linear_48_236" x1="26.4663" y1="8.14288" x2="26.4663" y2="22.8103" gradientUnits="userSpaceOnUse">
<stop stop-color="#CC2699"/>
<stop offset="1" stop-color="#C8427D"/>
</linearGradient>
<linearGradient id="paint2_linear_48_236" x1="6.71136" y1="0.461548" x2="6.71136" y2="40" gradientUnits="userSpaceOnUse">
<stop stop-color="#CE18A8"/>
<stop offset="1" stop-color="#C4635C"/>
</linearGradient>
<linearGradient id="paint3_linear_48_236" x1="4.02976" y1="8.14288" x2="4.02976" y2="22.8103" gradientUnits="userSpaceOnUse">
<stop stop-color="#CC2699"/>
<stop offset="1" stop-color="#C8427D"/>
</linearGradient>
</defs>
</svg>
